<?xml version="1.0" encoding="UTF-8"?>
<!-- Generator: Adobe Illustrator 16.2.1, SVG Export Plug-In . SVG Version: 6.00 Build 0)  -->
<svg version="1.2" baseProfile="tiny" id="Layer_1" xmlns="http://www.w3.org/2000/svg" xmlns:xlink="http://www.w3.org/1999/xlink" x="0px" y="0px" width="73.729px" height="345.779px" viewBox="0 0 73.729 345.779" xml:space="preserve">
<circle fill="none" stroke="#808080" stroke-width="2.0297" stroke-miterlimit="10" cx="37.089" cy="301.431" r="33.756"/>
<g>
	<path fill="#666666" stroke="#808080" stroke-width="0.0576" stroke-miterlimit="10" d="M47.944,309.279H41.7v9.241h-2.329v-9.241   H20.74v-1.66l17.963-25.52H41.7v25.049h6.244V309.279z M39.372,307.148v-10.356c0-4.988,0.115-9.176,0.347-12.562H39.52   c-0.331,0.611-1.346,2.164-3.047,4.657l-12.785,18.261H39.372z"/>
</g>
<circle fill="none" stroke="#808080" stroke-width="2.0297" stroke-miterlimit="10" cx="37.089" cy="127.274" r="33.756"/>
<g>
	<path fill="#666666" stroke="#808080" stroke-width="0.0576" stroke-miterlimit="10" d="M47.174,144.364h-22.67v-2.181   l9.638-10.059c2.709-2.808,4.608-4.956,5.699-6.442s1.891-2.907,2.403-4.261c0.512-1.354,0.768-2.775,0.768-4.261   c0-2.164-0.71-3.923-2.131-5.277c-1.421-1.354-3.262-2.032-5.525-2.032c-3.023,0-5.914,1.099-8.672,3.295l-1.338-1.709   c3.023-2.543,6.375-3.815,10.059-3.815c3.155,0,5.637,0.842,7.445,2.527c1.809,1.685,2.713,4.005,2.713,6.962   c0,2.395-0.607,4.712-1.821,6.949c-1.214,2.238-3.432,5.002-6.652,8.288l-9.292,9.539v0.1h19.375V144.364z"/>
</g>
<circle fill="none" stroke="#808080" stroke-width="2.0297" stroke-miterlimit="10" cx="37.089" cy="214.353" r="33.756"/>
<g>
	<path fill="#666666" stroke="#808080" stroke-width="0.0576" stroke-miterlimit="10" d="M46.298,203.742   c0,2.247-0.706,4.138-2.118,5.674c-1.413,1.536-3.308,2.52-5.687,2.948v0.149c2.907,0.363,5.121,1.288,6.64,2.774   s2.28,3.485,2.28,5.996c0,3.386-1.152,6.008-3.457,7.866s-5.62,2.787-9.948,2.787c-3.684,0-6.896-0.685-9.638-2.056v-2.453   c1.387,0.727,2.944,1.297,4.67,1.71c1.726,0.412,3.349,0.619,4.868,0.619c3.65,0,6.393-0.739,8.226-2.218   c1.833-1.478,2.75-3.563,2.75-6.256c0-2.395-0.938-4.236-2.812-5.525c-1.875-1.288-4.629-1.933-8.263-1.933h-3.915v-2.378h3.964   c3.006,0,5.389-0.715,7.148-2.144c1.759-1.429,2.639-3.365,2.639-5.81c0-2.016-0.715-3.63-2.143-4.844   c-1.429-1.215-3.3-1.821-5.612-1.821c-1.801,0-3.444,0.252-4.931,0.756c-1.486,0.504-3.155,1.366-5.005,2.589l-1.214-1.66   c1.404-1.173,3.097-2.102,5.079-2.787s3.989-1.028,6.021-1.028c3.336,0,5.913,0.789,7.73,2.366   C45.39,198.643,46.298,200.868,46.298,203.742z"/>
</g>
<circle fill="none" stroke="#808080" stroke-width="2.0297" stroke-miterlimit="10" cx="37.089" cy="40.196" r="33.756"/>
<g>
	<path fill="#666666" stroke="#808080" stroke-width="0.0576" stroke-miterlimit="10" d="M38.602,57.286h-2.428V30.899   c0-2.395,0.099-4.881,0.297-7.458c-0.248,0.248-0.504,0.487-0.768,0.718c-0.264,0.231-2.816,2.239-7.656,6.021l-1.412-1.759   l9.836-7.358h2.131V57.286z"/>
</g>
</svg>